# xmcd
#
# Track frame offsets:
#	150
#	22252
#	41410
#	60035
#	78400
#	101045
#	118404
#	138595
#	160347
#	178147
#	197745
#	216615
#
# Disc length: 3191 seconds
#
# Revision: 2
# Processed by: cddbd v1.5.1PL0 Copyright (c) Steve Scherf et al.
# Submitted via: MusicWizard 7.0.2
#
DISCID=b20c750c
DTITLE=Stevie B. - Funky Melody
DYEAR=1995
DGENRE=Freestyle - Bass - Electro /Old School
TTITLE0=Funky Melody
TTITLE1=Running Back
TTITLE2=4u
TTITLE3=Dream About You
TTITLE4=Girl I Love Ya
TTITLE5=Call My Name
TTITLE6=If You Still Love Me
TTITLE7=Waiting For Your Love
TTITLE8=Caying Out
TTITLE9=If You Still Love Me (Bonus Ballad)
TTITLE10=Dream About You (Pop R.Cx. Mix)
TTITLE11=Dream About You (Drop Mix)
EXTD=
EXTT0=
EXTT1=
EXTT2=
EXTT3=
EXTT4=
EXTT5=
EXTT6=
EXTT7=
EXTT8=
EXTT9=
EXTT10=
EXTT11=
PLAYORDER=
